<?xml version="1.0" standalone="no"?>
<!DOCTYPE svg PUBLIC "-//W3C//DTD SVG 20010904//EN"
 "http://www.w3.org/TR/2001/REC-SVG-20010904/DTD/svg10.dtd">
<svg version="1.0" xmlns="http://www.w3.org/2000/svg"
 width="2560.000000pt" height="2560.000000pt" viewBox="0 0 2560.000000 2560.000000"
 preserveAspectRatio="xMidYMid meet">
<metadata>
Created by potrace 1.14, written by Peter Selinger 2001-2017
</metadata>
<g transform="translate(0.000000,2560.000000) scale(0.100000,-0.100000)"
fill="#000000" stroke="none">
<path d="M426 13629 c-6 -9 -10 -42 -8 -76 l4 -59 281 0 c155 1 288 0 295 -2
9 -3 12 -166 12 -771 l0 -767 68 2 c37 1 70 2 74 3 4 1 7 322 7 714 0 391 0
737 0 767 l1 55 278 -1 c214 0 278 3 282 12 3 7 3 40 2 73 l-4 61 -36 0 c-21
1 -309 2 -641 3 -545 2 -604 0 -615 -14z"/>
<path d="M2041 13642 c-8 -3 -11 -237 -11 -842 l0 -838 28 -3 c15 -2 49 -2 76
1 l50 5 0 380 1 380 503 0 c276 0 503 -3 503 -7 1 -5 2 -176 3 -380 l1 -373
40 -5 c22 -3 56 -3 76 -2 l36 4 0 838 c0 593 -4 840 -11 843 -6 2 -40 3 -76 2
l-65 -1 0 -382 c0 -210 -2 -382 -5 -383 -3 0 -227 -1 -498 -2 -320 -1 -496 2
-500 8 -4 6 -8 177 -9 380 -1 204 -2 372 -2 375 -1 6 -123 8 -140 2z"/>
<path d="M4389 13646 c-2 -2 -35 -7 -74 -10 -108 -10 -139 -18 -217 -57 -83
-40 -135 -79 -199 -146 -97 -101 -146 -193 -174 -322 -20 -93 -15 -582 7 -661
64 -235 266 -428 501 -479 224 -49 446 18 613 184 58 58 147 200 159 254 28
123 31 159 30 405 -1 275 -7 323 -51 423 -50 114 -130 211 -239 287 -51 36
-144 83 -180 91 -5 1 -21 5 -35 8 -14 4 -47 9 -73 12 -26 2 -51 7 -56 9 -4 3
-10 4 -12 2z m87 -167 c27 -6 63 -17 81 -25 17 -8 34 -14 37 -14 10 0 106 -72
141 -106 40 -37 115 -151 115 -173 0 -9 5 -22 10 -27 18 -18 23 -93 23 -359 0
-243 -1 -264 -22 -323 -125 -359 -586 -465 -846 -197 -33 35 -65 69 -70 76
-17 24 -53 103 -61 134 -4 17 -9 37 -12 45 -9 31 -9 512 0 563 11 59 57 161
87 194 12 12 21 25 21 28 0 3 23 28 51 55 117 112 297 164 445 129z"/>
<path d="M8737 13635 c-26 -6 -47 -11 -47 -9 0 2 -25 -8 -56 -22 -147 -65
-264 -183 -334 -337 -52 -116 -54 -139 -55 -737 -1 -305 2 -559 6 -565 4 -6
38 -9 76 -7 l68 3 0 367 c-1 202 0 372 2 377 3 8 780 13 940 6 l22 -1 0 -371
c-1 -204 1 -373 4 -375 6 -7 138 -7 144 0 3 2 5 251 5 553 -1 598 -3 630 -59
756 -15 34 -30 64 -33 67 -3 3 -17 23 -32 45 -28 41 -80 96 -133 140 -32 26
-160 93 -192 100 -10 2 -38 8 -62 13 -59 14 -205 12 -264 -3z m248 -150 c60
-12 156 -67 213 -123 114 -112 152 -204 158 -383 l4 -116 -482 1 -483 1 1 96
c1 53 7 120 14 150 24 105 97 217 191 294 34 29 128 73 169 80 19 3 36 8 38
10 6 5 139 -2 177 -10z"/>
<path d="M10177 13638 c-106 -23 -225 -122 -277 -232 -49 -104 -66 -231 -46
-340 4 -20 6 -38 6 -41 -3 -16 70 -134 109 -177 40 -44 102 -93 124 -96 4 -1
20 -8 35 -15 44 -23 93 -26 392 -28 261 -1 288 -2 326 -20 136 -65 203 -227
158 -381 -24 -80 -64 -129 -139 -171 -39 -22 -47 -22 -530 -27 l-490 -5 -1
-62 c0 -34 2 -67 6 -73 5 -8 142 -11 461 -11 485 0 525 2 591 28 53 20 157 94
158 111 0 6 3 12 8 12 15 0 53 69 76 139 31 94 30 236 -1 323 -56 151 -188
266 -327 283 -33 4 -183 9 -335 10 -311 2 -316 3 -388 77 -42 44 -81 106 -90
143 -29 129 17 267 111 331 69 47 67 47 571 48 l480 1 3 91 3 91 -478 0 c-263
0 -495 -4 -516 -9z"/>
<path d="M12377 13642 c-9 -2 -17 -7 -18 -10 -1 -4 -2 -382 -3 -840 l-1 -832
60 -1 c564 -6 656 4 821 81 116 54 258 166 316 250 10 14 30 43 46 65 33 47
74 132 91 190 7 22 15 47 18 55 4 8 5 18 5 23 -1 4 3 28 8 54 11 49 14 207 5
258 -25 133 -65 233 -135 334 -44 64 -123 148 -172 182 -18 13 -37 29 -43 36
-16 19 -155 90 -220 111 -59 20 -92 27 -170 38 -43 6 -580 11 -608 6z m688
-180 c103 -29 133 -42 206 -89 97 -63 189 -165 238 -265 23 -46 44 -94 47
-108 19 -84 22 -114 19 -209 -5 -128 -7 -144 -35 -218 -72 -195 -221 -345
-411 -417 -94 -35 -112 -37 -376 -42 l-243 -4 -1 195 c0 107 0 251 0 320 0 69
0 291 0 494 l1 369 243 -3 c202 -3 254 -7 312 -23z"/>
<path d="M16509 13635 c-4 -52 -1 -1666 4 -1671 3 -3 196 -5 429 -4 233 0 432
1 443 1 43 0 151 31 204 59 117 63 202 175 226 297 6 32 7 136 2 173 -12 84
-68 189 -141 265 -35 36 -60 65 -56 65 21 0 114 99 144 153 111 203 59 445
-125 580 -40 30 -152 75 -207 83 -70 10 -922 10 -923 -1z m920 -131 c94 -27
159 -83 212 -184 19 -37 23 -61 23 -130 1 -73 -3 -92 -26 -135 -33 -64 -88
-114 -163 -150 l-60 -28 -373 -1 c-206 -1 -376 2 -379 7 -3 6 -6 341 -3 584
l0 51 358 1 c291 0 367 -3 411 -15z m31 -799 c98 -40 175 -122 200 -214 12
-45 12 -135 -1 -161 -4 -8 -17 -37 -30 -63 -31 -65 -115 -141 -181 -163 -47
-17 -92 -19 -421 -19 l-369 0 1 248 c0 136 0 280 1 320 l0 73 378 -1 c340 -1
381 -3 422 -20z"/>
<path d="M18265 13643 l-50 -4 2 -822 c1 -452 2 -831 2 -842 1 -20 7 -20 584
-19 320 1 584 2 587 3 3 0 5 27 4 59 l0 57 -501 1 c-275 0 -507 3 -514 6 -12
5 -14 128 -13 778 l1 772 -24 9 c-13 5 -25 8 -26 7 -1 -1 -24 -3 -52 -5z"/>
<path d="M19676 13634 c-12 -11 -13 -1046 -2 -1114 4 -19 8 -44 9 -55 26 -155
181 -360 327 -432 90 -44 115 -53 195 -67 151 -26 291 -5 429 66 74 38 73 37
170 133 60 59 91 100 119 155 21 42 40 84 42 95 2 11 4 20 5 20 2 0 10 34 16
70 6 34 12 1102 6 1125 -3 14 -42 17 -133 11 -14 -1 -16 -55 -16 -523 0 -555
-3 -610 -32 -683 -70 -173 -219 -296 -388 -321 -272 -41 -484 79 -576 326 -20
53 -21 77 -23 623 -1 313 -5 571 -8 574 -11 11 -129 8 -140 -3z"/>
<path d="M21325 13640 l-40 -5 1 -60 c1 -33 2 -65 3 -71 1 -8 86 -11 287 -10
157 1 289 -1 293 -4 5 -3 8 -344 7 -758 -1 -414 1 -758 4 -765 5 -12 138 -19
142 -7 0 3 2 345 3 761 1 415 4 759 7 765 4 5 115 9 270 8 144 -1 269 1 276 3
8 4 12 28 12 74 l0 69 -47 0 c-582 4 -1187 4 -1218 0z"/>
<path d="M23170 13633 c-75 -22 -107 -41 -168 -101 -197 -191 -197 -520 0
-708 110 -105 145 -113 509 -114 182 0 300 -5 321 -12 44 -14 111 -65 138
-104 42 -62 59 -126 56 -206 -6 -113 -58 -201 -151 -251 -39 -21 -52 -22 -530
-27 l-490 -5 -2 -72 -1 -73 52 -1 c214 -2 905 1 921 5 102 22 165 54 229 120
58 58 94 124 113 206 2 8 6 55 8 103 8 168 -63 313 -200 407 -35 24 -133 61
-153 59 -4 -1 -9 -1 -12 0 -3 2 -138 4 -300 5 -238 2 -301 6 -328 18 -51 23
-118 94 -149 156 -23 46 -27 68 -26 136 0 68 4 90 27 134 43 84 101 133 177
148 19 4 243 7 499 8 l465 1 0 90 0 90 -480 1 c-371 0 -490 -3 -525 -13z"/>
<path d="M5925 13625 c-93 -20 -98 -22 -151 -47 -71 -36 -114 -62 -114 -70 0
-5 -4 -8 -9 -8 -16 0 -123 -118 -159 -173 -41 -63 -49 -82 -76 -177 -22 -73
-22 -89 -22 -630 l1 -555 74 0 74 0 2 550 c1 303 5 563 9 579 40 169 224 349
388 382 53 11 159 11 208 1 135 -27 287 -144 352 -272 52 -101 51 -92 53 -677
1 -301 5 -551 9 -555 4 -4 39 -8 77 -8 l69 -1 1 521 c1 565 1 576 25 650 45
138 211 301 337 331 9 2 27 7 40 10 31 9 175 9 217 0 162 -34 340 -212 381
-381 9 -35 13 -210 15 -585 1 -294 2 -537 3 -540 2 -8 135 -7 141 1 8 11 4
1089 -4 1129 -41 201 -165 370 -342 462 -95 50 -170 69 -285 73 -157 4 -298
-43 -421 -140 -58 -45 -148 -150 -148 -171 0 -6 -6 -17 -14 -23 -12 -10 -18
-7 -30 18 -25 47 -124 149 -189 193 -70 47 -162 90 -231 107 -72 18 -212 21
-281 6z"/>
<path d="M14464 13628 c-161 -28 -307 -154 -360 -308 -26 -78 -25 -234 3 -312
26 -71 75 -142 113 -165 35 -20 38 -38 11 -52 -44 -24 -114 -149 -136 -246
-12 -49 -14 -183 -4 -223 21 -80 65 -159 118 -212 47 -46 128 -101 178 -121
57 -22 65 -23 513 -23 l454 -1 2 73 c1 40 -3 75 -8 78 -5 3 -201 6 -435 6
-438 1 -475 3 -550 43 -18 9 -46 33 -63 53 -125 151 -66 404 113 487 44 21 62
22 275 23 125 0 244 1 265 1 l37 1 0 73 0 74 -232 0 c-261 0 -290 3 -360 41
-113 61 -163 143 -162 267 0 99 27 167 89 224 78 72 98 74 595 75 l435 1 1 75
1 75 -427 0 c-234 0 -444 -3 -466 -7z"/>
</g>
</svg>
