<svg xmlns="http://www.w3.org/2000/svg" viewBox="10 75 320 65">
    <path
        fill="#e63f95"
        d="M31.5,97l-16.26,0l0,1.83l7.38,0l0,19.23l1.86,0l0-19.23l7.02,0l0-1.83z M51.8352,96.94l-1.89,0l0,9.6l-12.66,0l0-9.6l-1.89,0l0,21.06l1.89,0l0-9.57l12.66,0l0,9.57l1.89,0l0-21.06z M64.6704,97q-3.39,0-5.82,2.43q-2.46,2.46-2.46,5.85l0,4.53q0,3.33,2.46,5.79t5.82,2.46q3.39,0,5.85-2.46q2.43-2.43,2.43-5.79l0-4.53q0-3.42-2.43-5.85t-5.85-2.43z M71.0904,105.28l0,4.53q0,2.73-1.92,4.59q-1.89,1.8-4.5,1.8t-4.47-1.8q-1.92-1.86-1.92-4.59l0-4.53q0-2.52,1.92-4.5q1.92-1.92,4.47-1.92q2.52,0,4.5,1.92q1.92,1.98,1.92,4.5z M77.4156,117.94l1.86,0l0-12.69q0-2.52,1.92-4.44t4.44-1.92q2.46,0,4.44,1.92q1.89,1.89,1.89,4.44l0,12.69l1.92,0l0-12.69q0-2.58,1.92-4.44q1.92-1.92,4.41-1.92q2.52,0,4.44,1.92t1.92,4.44l0,12.69l1.86,0l0-12.69q0-3.42-2.4-5.82t-5.82-2.4q-2.25,0-4.23,1.23q-2.01,1.26-2.88,3.21q-1.17-2.01-3.15-3.21q-2.07-1.23-4.32-1.23q-3.39,0-5.79,2.4q-2.43,2.43-2.43,5.82l0,12.69z M120.9408,96.88q-3.36,0-5.64,2.43q-2.25,2.4-2.25,5.85l0,12.84l1.89,0l0-9.42l12.06,0l0,9.42l1.89,0l0-12.84q0-3.45-2.25-5.85q-2.34-2.43-5.7-2.43z M127.0008,106.72l-12.06,0l0-1.56q0-2.58,1.74-4.47q1.77-1.92,4.26-1.92t4.32,1.92q1.74,1.89,1.74,4.47l0,1.56z M138.306,99.19l11.31,0l0-2.28l-11.31,0q-2.22,0-3.72,1.74q-1.53,1.77-1.53,4.29q0,2.28,1.53,3.96q1.5,1.71,3.72,1.71l3,0l3.06,0q1.35,0,2.4,1.14q0.99,1.2,0.99,2.61q0,1.68-0.975,2.73t-2.415,1.05l-11.31,0l0,1.86l11.31,0q2.25,0,3.75-1.56t1.5-4.08q0-2.28-1.5-3.96q-1.53-1.68-3.75-1.68l-3.06,0l-3,0q-1.38,0-2.37-1.2q-1.02-1.11-1.02-2.58q0-1.68,0.975-2.715t2.415-1.035z M170.9364,96.97l-4.59,0l-1.14,0l-0.75,0l0,21.03l0.75,0l1.14,0l4.59,0q4.38,0,7.5-3.06q3.21-3.15,3.21-7.65q0-4.26-3.21-7.32q-3.15-3-7.5-3z M170.9364,116.11l-4.59,0l0-17.19l4.59,0q3.75,0,6.3,2.46q2.52,2.46,2.52,5.91q0,3.75-2.52,6.27q-2.55,2.55-6.3,2.55z M187.8816,112.24q0-1.44,1.02-2.61q1.02-1.23,2.46-1.23l0.39,0l5.61,0l0-1.86l-5.61,0l-0.39,0q-1.53-0.3-2.505-1.32t-0.975-2.43q0-1.77,1.035-2.805t2.835-1.035l10.2,0l0-1.89l-10.2,0q-2.31,0-4.02,1.71q-1.71,1.65-1.71,4.02q0,1.5,0.57,2.73t1.68,1.77q-1.11,0.81-1.68,2.13t-0.57,2.82q0,2.34,1.71,3.99q1.74,1.74,4.02,1.74l10.2,0l0-1.98l-10.2,0q-1.8,0-2.835-1.02t-1.035-2.73z M230.112,107.29q1.17-0.57,1.92-1.89q0.75-1.26,0.75-2.7q0-2.58-1.74-4.17q-1.74-1.56-4.38-1.56l-8.43,0l-0.36,0l-1.53,0l0,21.03l1.53,0l0.36,0l8.43,0q2.64,0,4.38-1.56q1.74-1.59,1.74-4.17q0-1.41-0.735-2.745t-1.935-2.235z M218.232,98.5l8.43,0q1.8,0,2.97,1.23q1.26,1.32,1.26,2.97q0,1.35-0.99,2.49q-0.93,1.02-2.46,1.35l-0.78,0l-8.43,0l0-8.04z M226.662,116.47l-8.43,0l0-8.04l8.43,0l0.78,0q1.53,0.33,2.46,1.35q0.99,1.14,0.99,2.49q0,1.62-1.26,2.94q-1.2,1.26-2.97,1.26z M237.7272,118.06l14.67,0l0-1.53l-12.81,0l0-19.53l-1.86,0l0,21.06z M272.4324,96.97l-1.89,0l0,12.81q0,2.76-1.92,4.62q-1.89,1.8-4.5,1.8q-2.85,0-4.59-1.8q-1.77-1.83-1.77-4.62l0-12.81l-1.92,0l0,12.81q0,3.42,2.34,5.82q2.37,2.46,5.94,2.46q3.33,0,5.85-2.46q2.46-2.4,2.46-5.82l0-12.81z M292.3476,97l-16.26,0l0,1.83l7.38,0l0,19.23l1.86,0l0-19.23l7.02,0l0-1.83z M300.9228,99.19l11.31,0l0-2.28l-11.31,0q-2.22,0-3.72,1.74q-1.53,1.77-1.53,4.29q0,2.28,1.53,3.96q1.5,1.71,3.72,1.71l3,0l3.06,0q1.35,0,2.4,1.14q0.99,1.2,0.99,2.61q0,1.68-0.975,2.73t-2.415,1.05l-11.31,0l0,1.86l11.31,0q2.25,0,3.75-1.56t1.5-4.08q0-2.28-1.5-3.96q-1.53-1.68-3.75-1.68l-3.06,0l-3,0q-1.38,0-2.37-1.2q-1.02-1.11-1.02-2.58q0-1.68,0.975-2.715t2.415-1.035z"
    />
</svg>
